<svg width="154" height="72" viewBox="0 0 154 72" fill="none" xmlns="http://www.w3.org/2000/svg">
<rect width="154" height="72" fill="#1E1E1E"/>
<rect width="154" height="72" fill="white"/>
<g style="mix-blend-mode:darken" filter="url(#filter0_i_0_1)">
<path d="M72.9444 6.16771C69.5129 6.91691 66.0051 9.09642 64.0224 11.6505C63.1836 12.7403 62.5736 13.1489 61.5822 13.3192C60.7816 13.4554 59.9046 13.9322 59.4471 14.4771C58.6845 15.3284 58.6464 15.703 58.7608 20.2664C58.8751 24.9319 58.9133 25.2043 59.7902 25.8173C60.2859 26.1579 61.1628 26.4644 61.7729 26.4644C62.4973 26.4644 62.993 26.7027 63.298 27.2136C63.5268 27.6222 64.5181 28.712 65.4713 29.5974L67.2252 31.2661L64.0606 34.0926L60.9341 36.9192L61.0485 38.7581L61.1628 40.5971L63.1836 40.6993L65.1663 40.8014V43.2193V45.6372L67.3777 47.6464L69.6273 49.6216H76.986H84.3447L86.5943 47.6464L88.8057 45.6372V43.2193V40.7674H90.9028H92.9998V38.7241V36.7149L89.8733 34.0245L86.7468 31.3342L88.005 30.1763C88.6913 29.5633 89.7208 28.4736 90.2165 27.7584C90.979 26.7368 91.4366 26.4644 92.3135 26.4644C92.9617 26.4644 93.8005 26.1238 94.3343 25.613C95.2494 24.8297 95.2875 24.6254 95.2875 20.0621C95.2875 14.6814 94.9062 13.7279 92.4279 13.3192C91.4747 13.183 90.7884 12.6722 89.6827 11.3781C88.1194 9.47102 84.3066 6.98502 82.0189 6.33798C79.8456 5.75905 75.1177 5.65689 72.9444 6.16771ZM83.1628 7.80234C86.1749 9.06236 88.8438 11.3781 90.369 14.1365C91.5891 16.282 91.6653 16.6566 91.6653 19.8237C91.6653 22.9567 91.5509 23.3994 90.4834 25.4427C89.797 26.6687 88.8057 28.0649 88.2719 28.5758C87.3568 29.4271 87.09 29.4612 84.6498 29.359C83.0102 29.2909 81.6376 29.0525 81.1038 28.712C80.4938 28.3033 79.3499 28.1671 76.986 28.1671C73.1732 28.1671 72.2962 28.5417 72.4869 30.0401L72.6013 31.0618L76.8335 31.1639C80.265 31.232 81.142 31.1639 81.5614 30.7212C82.0952 30.1423 85.7555 29.972 85.7555 30.5169C85.7555 31.0618 81.8283 32.5942 79.3499 33.0029C73.0588 34.0586 66.3483 30.8574 63.4886 25.4427C62.4211 23.4335 62.3067 22.9227 62.3067 19.8237C62.3067 16.8609 62.4592 16.1458 63.3361 14.4771C65.09 11.1057 68.0259 8.72182 72.1056 7.35963C75.0796 6.37204 80.1888 6.57636 83.1628 7.80234ZM83.4678 39.303V42.6063L82.057 43.9004L80.6463 45.1945H77.2148H73.7832L72.1437 43.7642L70.5042 42.3339V39.1668V35.9997H76.986H83.4678V39.303Z" fill="#121212"/>
<path d="M73.0588 13.3533C71.038 14.3409 69.1697 16.5885 68.7503 18.5637C68.5978 19.2107 68.7122 20.5729 68.9791 21.6286C69.7417 24.7616 73.4782 27.486 76.986 27.486C80.1888 27.486 84.1922 24.7957 84.9929 22.0372C85.908 18.9383 84.421 15.3625 81.4851 13.6257C79.1974 12.2635 75.6134 12.1614 73.0588 13.3533ZM77.4435 15.3966C77.4435 15.5668 77.2529 15.7712 77.0241 15.8393C76.7954 15.9074 76.6047 15.703 76.6047 15.3966C76.6047 15.0901 76.7954 14.8857 77.0241 14.9538C77.2529 15.022 77.4435 15.2263 77.4435 15.3966ZM74.012 16.7587C74.012 16.929 73.8214 17.1334 73.5926 17.2015C73.3638 17.2696 73.1732 17.0652 73.1732 16.7587C73.1732 16.4523 73.3638 16.2479 73.5926 16.316C73.8214 16.3841 74.012 16.5885 74.012 16.7587ZM80.9895 16.5544C81.2564 16.9631 80.5319 17.3717 80.0363 17.0993C79.6168 16.8609 79.8837 16.2479 80.4175 16.2479C80.6082 16.2479 80.8369 16.3841 80.9895 16.5544ZM78.8162 18.3593C79.4643 18.8701 79.3881 20.675 78.6255 21.4243C77.3292 22.7183 74.6983 21.7989 74.6983 20.028C74.7364 18.0188 77.0241 17.0993 78.8162 18.3593ZM72.7919 20.028C72.7919 20.1983 72.525 20.3345 72.22 20.3345C71.6481 20.3345 71.4574 19.9258 71.8768 19.5512C72.1819 19.2788 72.7919 19.5853 72.7919 20.028ZM82.3239 20.028C82.3239 20.1983 82.057 20.3345 81.752 20.3345C81.1801 20.3345 80.9895 19.9258 81.4089 19.5512C81.7139 19.2788 82.3239 19.5853 82.3239 20.028ZM74.2408 22.9908C74.317 23.2292 74.1264 23.3994 73.7832 23.3994C73.4401 23.3994 73.1732 23.161 73.1732 22.8546C73.1732 22.2756 74.012 22.3778 74.2408 22.9908ZM80.8751 22.8886C80.8751 23.0589 80.6844 23.2632 80.4557 23.3313C80.2269 23.3994 80.0363 23.1951 80.0363 22.8886C80.0363 22.5821 80.2269 22.3778 80.4557 22.4459C80.6844 22.514 80.8751 22.7183 80.8751 22.8886ZM77.4435 24.2508C77.4435 24.4211 77.2529 24.6254 77.0241 24.6935C76.7954 24.7616 76.6047 24.5573 76.6047 24.2508C76.6047 23.9443 76.7954 23.74 77.0241 23.8081C77.2529 23.8762 77.4435 24.0805 77.4435 24.2508Z" fill="#121212"/>
<g style="mix-blend-mode:darken">
<path d="M75.8803 19.2447C75.3846 20.0961 76.0709 21.0156 77.1766 21.0156C77.7486 21.0156 78.168 20.7772 78.3205 20.3345C78.8161 18.9383 76.6428 17.9507 75.8803 19.2447Z" fill="#B4EE0D"/>
</g>
</g>
<g style="mix-blend-mode:darken">
<path d="M23.4648 63.7109L23.5234 63.1191V62.0234C22.4727 61.9688 21.6875 61.8262 21.168 61.5957C20.6484 61.3613 20.2656 61.0684 20.0195 60.7168C19.8711 60.5098 19.7559 60.2793 19.6738 60.0254C19.5957 59.7676 19.4648 59.5742 19.2812 59.4453L19.3691 59.3223C19.5449 59.4395 19.7344 59.498 19.9375 59.498C20.1445 59.498 20.4082 59.4902 20.7285 59.4746C21.0488 59.459 21.4102 59.4414 21.8125 59.4219C22.2148 59.3984 22.502 59.3828 22.6738 59.375C22.8457 59.3672 22.9727 59.3438 23.0547 59.3047C23.1367 59.2617 23.1953 59.1855 23.2305 59.0762L23.4941 59.1641C23.4824 59.1953 23.4766 59.2363 23.4766 59.2871C23.4766 59.416 23.584 59.5625 23.7988 59.7266C24.0137 59.8906 24.4023 59.9727 24.9648 59.9727C25.3438 59.9727 25.6133 59.9082 25.7734 59.7793C25.8438 59.7207 25.8789 59.6504 25.8789 59.5684C25.8789 59.377 25.7734 59.25 25.5625 59.1875C25.3516 59.125 25.0957 59.0723 24.7949 59.0293C24.498 58.9824 24.1992 58.9453 23.8984 58.918C23.6016 58.8906 23.2793 58.8516 22.9316 58.8008C22.584 58.75 22.2559 58.6953 21.9473 58.6367C21.6387 58.5742 21.3379 58.4844 21.0449 58.3672C20.7559 58.25 20.5078 58.1133 20.3008 57.957C20.0938 57.7969 19.9258 57.5938 19.7969 57.3477C19.6719 57.0977 19.6094 56.8145 19.6094 56.498C19.6094 56.1816 19.6582 55.8926 19.7559 55.6309C19.8574 55.3691 19.9941 55.1445 20.166 54.957C20.3379 54.7695 20.5449 54.6035 20.7871 54.459C21.0332 54.3145 21.2891 54.1973 21.5547 54.1074C21.8242 54.0176 22.1172 53.9453 22.4336 53.8906C22.9844 53.7891 23.5039 53.7383 23.9922 53.7383C24.4805 53.7383 24.8516 53.7461 25.1055 53.7617C25.3633 53.7734 25.6641 53.7988 26.0078 53.8379C26.3555 53.873 26.668 53.9336 26.9453 54.0195C27.2266 54.1016 27.5039 54.207 27.7773 54.3359C28.3477 54.6016 28.748 55.0137 28.9785 55.5723C29.0723 55.7715 29.2012 55.957 29.3652 56.1289L29.2891 56.2637C29.125 56.1504 28.9355 56.0938 28.7207 56.0938H28.6445C28.332 56.1055 27.8848 56.1289 27.3027 56.1641C26.7246 56.1953 26.3516 56.2148 26.1836 56.2227C26.0195 56.2305 25.9004 56.2539 25.8262 56.293C25.7559 56.332 25.7051 56.4062 25.6738 56.5156L25.416 56.4453C25.4277 56.4102 25.4336 56.373 25.4336 56.334C25.4336 56.1699 25.3008 56.0293 25.0352 55.9121C24.7695 55.791 24.4688 55.7305 24.1328 55.7305C23.4766 55.7305 23.1484 55.8594 23.1484 56.1172C23.1484 56.3477 23.6406 56.5156 24.625 56.6211C24.8555 56.6484 25.1172 56.6758 25.4102 56.7031C26.4297 56.8086 27.2109 56.9473 27.7539 57.1191C28.8945 57.4785 29.4648 58.1641 29.4648 59.1758C29.4648 59.5898 29.3789 59.9629 29.207 60.2949C29.0352 60.623 28.8105 60.8906 28.5332 61.0977C28.2598 61.3047 27.9355 61.4766 27.5605 61.6133C26.8848 61.8594 26.1133 61.9824 25.2461 61.9824C25.0117 61.9824 24.873 61.9805 24.8301 61.9766C24.6191 61.9766 24.5137 62.1387 24.5137 62.4629V62.6035C24.5137 62.709 24.5391 62.8633 24.5898 63.0664C24.6445 63.2734 24.6719 63.4277 24.6719 63.5293C24.6719 63.7363 24.5996 63.8398 24.4551 63.8398C24.3809 63.8398 24.3223 63.8086 24.2793 63.7461C24.2402 63.6836 24.2207 63.6055 24.2207 63.5117C24.2207 63.418 24.2441 63.2578 24.291 63.0312C24.3418 62.8086 24.3672 62.6465 24.3672 62.5449C24.3672 62.4434 24.3652 62.3711 24.3613 62.3281C24.3613 62.2891 24.3555 62.2383 24.3438 62.1758C24.3359 62.1172 24.3203 62.0742 24.2969 62.0469C24.2422 61.9766 24.1484 61.9414 24.0156 61.9414C23.7734 61.9414 23.6523 62.1523 23.6523 62.5742L23.6875 63.5352C23.6875 63.793 23.6504 63.9219 23.5762 63.9219C23.502 63.9219 23.4648 63.8516 23.4648 63.7109ZM34.2871 61.0273L34.1934 60.3008V60.2363C34.2754 60.0918 34.3867 60.0195 34.5273 60.0195L39.3086 60.0254C39.5469 60.0254 39.7402 59.9492 39.8887 59.7969L40.0059 59.9141C39.834 60.0859 39.748 60.4141 39.748 60.8984C39.748 60.8984 39.748 61.0117 39.748 61.2383C39.748 61.6328 39.834 61.9199 40.0059 62.0996L39.8887 62.2168C39.7363 62.0645 39.543 61.9883 39.3086 61.9883H32.377C32.0293 61.9883 31.7734 62.0547 31.6094 62.1875C31.4219 62.3438 31.3281 62.7852 31.3281 63.5117C31.3281 63.8047 31.373 64.2363 31.4629 64.8066C31.5527 65.3809 31.5977 65.8125 31.5977 66.1016C31.5977 66.5195 31.4492 66.7285 31.1523 66.7285C30.832 66.7285 30.6719 66.5137 30.6719 66.084C30.6719 65.791 30.7363 65.3574 30.8652 64.7832C30.9941 64.209 31.0586 63.7734 31.0586 63.4766L31.0293 61.5137V54.6816C31.0293 54.4395 30.9551 54.2461 30.8066 54.1016L30.9238 53.9785C31.084 54.1309 31.2793 54.207 31.5098 54.207H39.0332C39.2715 54.207 39.4668 54.1309 39.6191 53.9785L39.7363 54.1016C39.5645 54.2734 39.4785 54.5977 39.4785 55.0742V55.4023C39.4785 55.8203 39.5645 56.1133 39.7363 56.2812L39.6191 56.3926C39.4238 56.1934 38.9648 56.0938 38.2422 56.0938L35.3301 56.2285C34.6113 56.2285 34.1543 56.1289 33.959 55.9297L33.8359 56.0469C33.9883 56.1953 34.0645 56.3926 34.0645 56.6387C34.0645 56.8809 33.9883 57.0762 33.8359 57.2246L33.959 57.3359C34.1465 57.1406 34.541 57.043 35.1426 57.043L37.5977 57.1777C38.2031 57.1777 38.6035 57.0801 38.7988 56.8848L38.9219 57.002C38.75 57.1738 38.6641 57.5039 38.6641 57.9922V58.3203C38.6641 58.7227 38.75 59.0137 38.9219 59.1934L38.7988 59.3164C38.6113 59.1211 38.2148 59.0234 37.6094 59.0234L35.1543 59.1523C34.5527 59.1523 34.1543 59.0547 33.959 58.8594L33.8418 58.9766C33.959 59.0938 34.0273 59.2344 34.0469 59.3984C34.0664 59.5586 34.0781 59.6738 34.082 59.7441C34.0859 59.8105 34.0859 59.916 34.082 60.0605C34.0781 60.2012 34.0762 60.2852 34.0762 60.3125L33.9766 61.0156C33.9766 61.1562 34.0273 61.2266 34.1289 61.2266C34.2344 61.2266 34.2871 61.1602 34.2871 61.0273ZM44.6113 64.9238L44.7227 62.1406C43.5312 61.9727 42.6133 61.543 41.9688 60.8516C41.3281 60.1602 41.0078 59.2168 41.0078 58.0215C41.0078 56.748 41.4258 55.7695 42.2617 55.0859C43.1836 54.3242 44.5527 53.9434 46.3691 53.9434C49.2793 53.9434 50.9062 54.7793 51.25 56.4512C51.2969 56.6934 51.4004 56.8789 51.5605 57.0078L51.4609 57.1367C51.2734 56.9961 51.0703 56.9355 50.8516 56.9551L48.5957 57.0957C48.334 57.1152 48.1641 57.2109 48.0859 57.3828L47.8926 57.2891C47.9316 57.2031 47.9512 57.1289 47.9512 57.0664C47.9512 56.8633 47.8828 56.6875 47.7461 56.5391C47.6133 56.3867 47.4434 56.2734 47.2363 56.1992C46.834 56.0547 46.4434 55.9824 46.0645 55.9824C45.4863 55.9824 45.0352 56.1797 44.7109 56.5742C44.3906 56.9648 44.2305 57.4746 44.2305 58.1035C44.2305 58.7285 44.4121 59.2402 44.7754 59.6387C45.1426 60.0332 45.6562 60.2305 46.3164 60.2305C46.5273 60.2305 46.7617 60.1797 47.0195 60.0781C47.2812 59.9727 47.5117 59.8223 47.7109 59.627C47.9141 59.4316 48.0156 59.2246 48.0156 59.0059C48.0156 58.9434 47.9941 58.8652 47.9512 58.7715L48.1445 58.6719C48.2383 58.8477 48.3887 58.9434 48.5957 58.959C48.8066 58.9746 49.0781 58.9961 49.4102 59.0234C50.1406 59.0898 50.6484 59.123 50.9336 59.123C51.2188 59.123 51.4434 59.0625 51.6074 58.9414L51.7012 59.0645C51.5566 59.1738 51.4473 59.377 51.373 59.6738C51.3027 59.9668 51.1641 60.25 50.957 60.5234C50.75 60.793 50.5156 61.0176 50.2539 61.1973C49.9961 61.373 49.6953 61.5273 49.3516 61.6602C48.7617 61.8945 48.1152 62.0605 47.4121 62.1582C47.4121 62.5176 47.459 63.0508 47.5527 63.7578C47.6465 64.4648 47.6934 64.9355 47.6934 65.1699C47.6934 65.4043 47.6641 65.5684 47.6055 65.6621C47.5508 65.7559 47.4688 65.8027 47.3594 65.8027C47.25 65.8027 47.166 65.7559 47.1074 65.6621C47.0488 65.5684 47.0195 65.418 47.0195 65.2109C47.0195 65.0078 47.0508 64.6113 47.1133 64.0215C47.1797 63.4316 47.2129 63.0371 47.2129 62.8379C47.2129 62.6387 47.2031 62.5039 47.1836 62.4336C47.1641 62.3633 47.1406 62.3086 47.1133 62.2695C47.0859 62.2344 47.0391 62.207 46.9727 62.1875C46.8203 62.1484 46.6367 62.1387 46.4219 62.1582C45.9922 62.1934 45.7773 62.2656 45.7773 62.375L45.918 63.9688C45.918 64.2227 45.8438 64.3496 45.6953 64.3496C45.5469 64.3496 45.4727 64.2422 45.4727 64.0273C45.4727 63.8125 45.498 63.5273 45.5488 63.1719C45.6035 62.8164 45.6309 62.5605 45.6309 62.4043C45.6309 62.252 45.5801 62.1758 45.4785 62.1758C45.2793 62.1758 45.1445 62.1973 45.0742 62.2402C45.0078 62.2832 44.9746 62.3223 44.9746 62.3574L45.0391 64.8945C45.0391 64.9609 45.0176 65.0195 44.9746 65.0703C44.9316 65.125 44.8789 65.1523 44.8164 65.1523C44.7539 65.1523 44.7031 65.1289 44.6641 65.082C44.6289 65.0391 44.6113 64.9863 44.6113 64.9238ZM62.1367 55.3789L62.1895 58.373C62.1895 59.416 62.0605 60.1797 61.8027 60.6641C61.5605 61.125 61.2148 61.4707 60.7656 61.7012C60.2539 61.9668 59.5742 62.1387 58.7266 62.2168V63.3125L58.7852 63.916C58.7852 64.0488 58.748 64.1152 58.6738 64.1152C58.5996 64.1152 58.5625 63.9863 58.5625 63.7285L58.5977 62.7734C58.5977 62.3516 58.4668 62.1406 58.2051 62.1406C58.002 62.1406 57.9004 62.3066 57.9004 62.6387C57.9004 62.6387 57.9102 62.8086 57.9297 63.1484C57.9297 63.2656 57.9531 63.4355 58 63.6582C58.0508 63.8848 58.0762 64.0449 58.0762 64.1387C58.0762 64.2324 58.0566 64.3105 58.0176 64.373C57.9785 64.4355 57.9219 64.4668 57.8477 64.4668C57.7734 64.4668 57.7168 64.4336 57.6777 64.3672C57.6426 64.3047 57.625 64.2285 57.625 64.1387C57.625 64.0488 57.6504 63.9004 57.7012 63.6934C57.7559 63.4902 57.7832 63.3594 57.7832 63.3008C57.7832 63.2422 57.7832 63.1816 57.7832 63.1191C57.7832 63.0605 57.7812 63 57.7773 62.9375C57.7734 62.875 57.7637 62.7969 57.748 62.7031C57.7168 62.5078 57.623 62.4102 57.4668 62.4102C57.1777 62.4102 57.0332 62.6953 57.0332 63.2656V63.5352C57.0332 63.6797 57.0684 63.8906 57.1387 64.168C57.209 64.4453 57.2441 64.6445 57.2441 64.7656C57.2441 65.0664 57.1465 65.2168 56.9512 65.2168C56.8535 65.2168 56.7754 65.1758 56.7168 65.0938C56.6621 65.0117 56.6348 64.9062 56.6348 64.7773C56.6348 64.6484 56.666 64.4297 56.7285 64.1211C56.7949 63.8125 56.8281 63.5781 56.8281 63.418V62.252C55.7188 62.2012 54.8867 62.0391 54.332 61.7656C53.3633 61.2969 52.8652 60.4062 52.8379 59.0938C52.8301 58.7305 52.8262 58.1895 52.8262 57.4707L52.8379 54.7637C52.8379 54.5332 52.7617 54.3398 52.6094 54.1836L52.7324 54.0664C52.877 54.2148 53.0703 54.2891 53.3125 54.2891H55.3867C55.625 54.2891 55.8184 54.2148 55.9668 54.0664L56.0898 54.1836C55.9414 54.3359 55.8672 54.5293 55.8672 54.7637L55.8789 57.7754C55.8789 58.3574 55.8945 58.7266 55.9258 58.8828C55.957 59.0391 55.9902 59.1836 56.0254 59.3164C56.0645 59.4453 56.1094 59.5488 56.1602 59.627C56.2148 59.7051 56.2832 59.7891 56.3652 59.8789C56.4473 59.9648 56.541 60.0312 56.6465 60.0781C56.8926 60.1875 57.1328 60.2422 57.3672 60.2422C57.6055 60.2422 57.7891 60.2324 57.918 60.2129C58.0508 60.1895 58.166 60.1543 58.2637 60.1074C58.3652 60.0566 58.4551 60.0039 58.5332 59.9492C58.6152 59.8906 58.6836 59.8184 58.7383 59.7324C58.7969 59.6426 58.8477 59.5586 58.8906 59.4805C58.9336 59.3984 58.9668 59.2969 58.9902 59.1758C59.0176 59.0547 59.0391 58.9492 59.0547 58.8594C59.0703 58.7656 59.082 58.6484 59.0898 58.5078C59.1016 58.293 59.1074 58.0488 59.1074 57.7754L59.1191 54.7637C59.1191 54.5254 59.0469 54.332 58.9023 54.1836L59.0137 54.0664C59.1621 54.2148 59.3574 54.2891 59.5996 54.2891H61.6738C61.9199 54.2891 62.1152 54.2148 62.2598 54.0664L62.377 54.1836C62.2168 54.3477 62.1367 54.7461 62.1367 55.3789ZM58.8672 65.252C58.8672 65.4355 58.8027 65.5273 58.6738 65.5273C58.5449 65.5273 58.4805 65.4316 58.4805 65.2402C58.4805 65.0527 58.5078 64.8926 58.5625 64.7598C58.6211 64.6309 58.6562 64.5664 58.668 64.5664C58.6797 64.5664 58.7012 64.6016 58.7324 64.6719C58.8223 64.875 58.8672 65.0684 58.8672 65.252ZM73.4102 63.9219L73.5391 62.709C73.5391 62.2168 73.3379 61.8418 72.9355 61.584C72.5371 61.3223 72.1172 61.207 71.6758 61.2383C71.2344 61.2656 70.9258 61.4141 70.75 61.6836C70.6602 61.8125 70.6152 61.9648 70.6152 62.1406L70.5859 63.7109C70.5859 63.9258 70.6191 64.2441 70.6855 64.666C70.752 65.0918 70.7852 65.4121 70.7852 65.627C70.7852 66.0059 70.6777 66.1953 70.4629 66.1953C70.248 66.1953 70.1406 66.0117 70.1406 65.6445C70.1406 65.4023 70.1758 65.0547 70.2461 64.6016C70.3164 64.1484 70.3555 63.8047 70.3633 63.5703C70.375 63.3359 70.3809 62.8359 70.3809 62.0703C70.3809 61.8672 70.3184 61.6328 70.1934 61.3672C70.0684 61.1016 69.8711 60.7363 69.6016 60.2715C69.332 59.8066 69.1113 59.3965 68.9395 59.041L68.7637 58.9414C68.6699 59.1133 68.5039 59.1992 68.2656 59.1992L67.7734 59.2168C67.4375 59.2168 67.1855 59.1348 67.0176 58.9707L66.8945 59.0879C66.9062 59.2324 66.9121 59.541 66.9121 60.0137L66.9062 61.4492C66.9062 61.8789 66.9141 62.1953 66.9297 62.3984L67.041 63.2598C67.041 63.4199 66.9863 63.5 66.877 63.5C66.7676 63.5 66.7129 63.4258 66.7129 63.2773L66.8066 62.5508C66.8066 62.375 66.7539 62.2344 66.6484 62.1289C66.5469 62.0273 66.4121 61.9766 66.2441 61.9766C66.0801 61.9766 65.9336 62.0488 65.8047 62.1934C65.6797 62.3418 65.6172 62.5332 65.6172 62.7676C65.6172 63.002 65.6602 63.3184 65.7461 63.7168C65.832 64.1191 65.875 64.4082 65.875 64.584C65.875 64.9512 65.7441 65.1348 65.4824 65.1348C65.2207 65.1348 65.0898 64.9551 65.0898 64.5957C65.0898 64.4277 65.127 64.1348 65.2012 63.7168C65.2793 63.2988 65.3184 62.9668 65.3184 62.7207C65.3184 62.4746 65.2617 62.2715 65.1484 62.1113C65.0352 61.9551 64.9062 61.877 64.7617 61.877C64.6172 61.877 64.4941 61.9258 64.3926 62.0234C64.291 62.125 64.2402 62.25 64.2402 62.3984L64.3984 63.7871C64.3984 64.0254 64.3105 64.1445 64.1348 64.1445C63.959 64.1445 63.8711 64.0234 63.8711 63.7812C63.8711 63.6406 63.9082 63.3945 63.9824 63.043C64.0566 62.6953 64.0918 62.4238 64.0879 62.2285C64.084 62.0332 64.082 59.5059 64.082 54.6465C64.082 54.4043 64.0078 54.2109 63.8594 54.0664L63.9766 53.9492C64.1289 54.0977 64.3223 54.1719 64.5566 54.1719H69.8066C70.627 54.1719 71.1777 54.1973 71.459 54.248C71.7441 54.2949 71.9922 54.3457 72.2031 54.4004C72.418 54.4551 72.5977 54.5234 72.7422 54.6055C72.8906 54.6836 73.0391 54.7832 73.1875 54.9043C73.3398 55.0215 73.4609 55.1562 73.5508 55.3086C73.7578 55.6562 73.8613 56.0254 73.8613 56.416C73.8613 56.8066 73.8301 57.127 73.7676 57.377C73.709 57.623 73.6094 57.8555 73.4688 58.0742C73.1641 58.5469 72.6289 58.7832 71.8633 58.7832L71.8164 58.918C72.0625 59.0156 72.2266 59.1504 72.3086 59.3223C72.6523 60.0723 72.9062 60.5488 73.0703 60.752C73.2344 60.9512 73.3867 61.1113 73.5273 61.2324C73.668 61.3535 73.8691 61.4766 74.1309 61.6016C74.3926 61.7266 74.5508 61.8086 74.6055 61.8477C74.6602 61.8828 74.6875 61.9121 74.6875 61.9355C74.6875 62.3262 74.7402 62.8281 74.8457 63.4414C74.9512 64.0547 75.0039 64.4492 75.0039 64.625C75.0039 64.8008 74.9961 64.9277 74.9805 65.0059C74.9688 65.084 74.9395 65.1602 74.8926 65.2344C74.8457 65.3125 74.7773 65.3516 74.6875 65.3516C74.5977 65.3516 74.5293 65.2871 74.4824 65.1582C74.4395 65.0293 74.418 64.8711 74.418 64.6836C74.418 64.4961 74.4434 64.1602 74.4941 63.6758C74.5449 63.1953 74.5703 62.832 74.5703 62.5859C74.5703 62.0977 74.4121 61.8535 74.0957 61.8535C73.9395 61.8535 73.8223 61.8809 73.7441 61.9355C73.6699 61.9902 73.6328 62.1016 73.6328 62.2695C73.6328 62.4414 73.668 62.7129 73.7383 63.084C73.8086 63.4551 73.8438 63.7344 73.8438 63.9219C73.8438 64.1133 73.7715 64.209 73.627 64.209C73.4824 64.209 73.4102 64.1133 73.4102 63.9219ZM69.5078 56.1172L68.125 56.1582C67.5586 56.1582 67.1895 56.0742 67.0176 55.9062L66.8945 56.0176C67.0508 56.1699 67.1289 56.3652 67.1289 56.6035V56.9961C67.1289 57.2305 67.0508 57.4258 66.8945 57.582L67.0176 57.6992C67.1855 57.5273 67.5332 57.4414 68.0605 57.4414L69.543 57.4941C69.9375 57.4941 70.2422 57.4434 70.457 57.3418C70.6758 57.2363 70.7852 57.0449 70.7852 56.7676C70.7852 56.5918 70.7246 56.4551 70.6035 56.3574C70.4824 56.2559 70.3359 56.1914 70.1641 56.1641C69.9922 56.1328 69.7734 56.1172 69.5078 56.1172ZM79.3809 61.0273L79.2871 60.3008V60.2363C79.3691 60.0918 79.4805 60.0195 79.6211 60.0195L84.4023 60.0254C84.6406 60.0254 84.834 59.9492 84.9824 59.7969L85.0996 59.9141C84.9277 60.0859 84.8418 60.4141 84.8418 60.8984C84.8418 60.8984 84.8418 61.0117 84.8418 61.2383C84.8418 61.6328 84.9277 61.9199 85.0996 62.0996L84.9824 62.2168C84.8301 62.0645 84.6367 61.9883 84.4023 61.9883H77.4707C77.123 61.9883 76.8672 62.0547 76.7031 62.1875C76.5156 62.3438 76.4219 62.7852 76.4219 63.5117C76.4219 63.8047 76.4668 64.2363 76.5566 64.8066C76.6465 65.3809 76.6914 65.8125 76.6914 66.1016C76.6914 66.5195 76.543 66.7285 76.2461 66.7285C75.9258 66.7285 75.7656 66.5137 75.7656 66.084C75.7656 65.791 75.8301 65.3574 75.959 64.7832C76.0879 64.209 76.1523 63.7734 76.1523 63.4766L76.123 61.5137V54.6816C76.123 54.4395 76.0488 54.2461 75.9004 54.1016L76.0176 53.9785C76.1777 54.1309 76.373 54.207 76.6035 54.207H84.127C84.3652 54.207 84.5605 54.1309 84.7129 53.9785L84.8301 54.1016C84.6582 54.2734 84.5723 54.5977 84.5723 55.0742V55.4023C84.5723 55.8203 84.6582 56.1133 84.8301 56.2812L84.7129 56.3926C84.5176 56.1934 84.0586 56.0938 83.3359 56.0938L80.4238 56.2285C79.7051 56.2285 79.248 56.1289 79.0527 55.9297L78.9297 56.0469C79.082 56.1953 79.1582 56.3926 79.1582 56.6387C79.1582 56.8809 79.082 57.0762 78.9297 57.2246L79.0527 57.3359C79.2402 57.1406 79.6348 57.043 80.2363 57.043L82.6914 57.1777C83.2969 57.1777 83.6973 57.0801 83.8926 56.8848L84.0156 57.002C83.8438 57.1738 83.7578 57.5039 83.7578 57.9922V58.3203C83.7578 58.7227 83.8438 59.0137 84.0156 59.1934L83.8926 59.3164C83.7051 59.1211 83.3086 59.0234 82.7031 59.0234L80.248 59.1523C79.6465 59.1523 79.248 59.0547 79.0527 58.8594L78.9355 58.9766C79.0527 59.0938 79.1211 59.2344 79.1406 59.3984C79.1602 59.5586 79.1719 59.6738 79.1758 59.7441C79.1797 59.8105 79.1797 59.916 79.1758 60.0605C79.1719 60.2012 79.1699 60.2852 79.1699 60.3125L79.0703 61.0156C79.0703 61.1562 79.1211 61.2266 79.2227 61.2266C79.3281 61.2266 79.3809 61.1602 79.3809 61.0273ZM102.604 63.8164L102.744 62.2285C102.744 62.1035 102.674 62 102.533 61.918C102.303 61.7891 102.021 61.7246 101.689 61.7246C101.244 61.7246 100.938 61.8125 100.77 61.9883C100.695 62.0664 100.658 62.1797 100.658 62.3281C100.658 62.4805 100.703 62.7441 100.793 63.1191C100.883 63.4941 100.928 63.7578 100.928 63.9102C100.928 64.0664 100.898 64.1895 100.84 64.2793C100.785 64.373 100.703 64.4199 100.594 64.4199C100.484 64.4199 100.4 64.373 100.342 64.2793C100.283 64.1895 100.254 64.0664 100.254 63.9102C100.254 63.7539 100.301 63.4844 100.395 63.1016C100.492 62.7188 100.541 62.4297 100.541 62.2344L100.535 55.0508C100.535 54.5898 100.395 54.2051 100.113 53.8965L100.236 53.7734C100.553 54.0547 100.938 54.1953 101.391 54.1953H103.143C103.393 54.1953 103.604 54.166 103.775 54.1074C103.951 54.0449 104.092 53.9238 104.197 53.7441L104.391 53.8379C104.289 54.0801 104.238 54.3086 104.238 54.5234C104.238 54.6992 104.547 55.1406 105.164 55.8477C105.969 56.7695 106.486 57.3887 106.717 57.7051C106.947 58.0215 107.098 58.2773 107.168 58.4727H107.52C107.328 58.1914 107.232 57.7949 107.232 57.2832C107.232 57.0449 107.262 56.6895 107.32 56.2168C107.379 55.7402 107.408 55.3828 107.408 55.1445C107.408 54.5039 107.205 54.0879 106.799 53.8965L106.922 53.7734C107.238 54.0547 107.623 54.1953 108.076 54.1953H109.277C109.73 54.1953 110.115 54.0547 110.432 53.7734L110.549 53.8965C110.271 54.209 110.133 54.5938 110.133 55.0508L110.121 62.2051C110.121 62.373 110.16 62.623 110.238 62.9551C110.316 63.291 110.355 63.543 110.355 63.7109C110.355 63.9609 110.26 64.0859 110.068 64.0859C109.877 64.0859 109.781 63.9609 109.781 63.7109C109.781 63.5469 109.818 63.3047 109.893 62.9844C109.967 62.668 110.004 62.4492 110.004 62.3281C110.004 62.2109 109.965 62.127 109.887 62.0762C109.809 62.0254 109.732 62 109.658 62H107.344C107.016 62 106.852 62.2988 106.852 62.8965C106.852 63.1426 106.896 63.498 106.986 63.9629C107.08 64.4316 107.127 64.7852 107.127 65.0234C107.127 65.3633 107 65.5332 106.746 65.5332C106.492 65.5332 106.365 65.3613 106.365 65.0176C106.365 64.7988 106.414 64.4805 106.512 64.0625C106.613 63.6445 106.666 63.3301 106.67 63.1191L106.682 62.3398C106.693 61.9766 106.656 61.7402 106.57 61.6309L103.764 58.0742C103.689 57.9766 103.607 57.7734 103.518 57.4648L103.16 57.4766C103.363 57.6875 103.465 57.9219 103.465 58.1797V61.5254L103.576 64.4902C103.576 64.5527 103.557 64.6055 103.518 64.6484C103.482 64.6953 103.432 64.7188 103.365 64.7188C103.303 64.7188 103.25 64.6914 103.207 64.6367C103.164 64.5859 103.143 64.5273 103.143 64.4609L103.213 62.2109C103.213 62.1641 103.195 62.1211 103.16 62.082C103.125 62.043 103.084 62.0234 103.037 62.0234C102.936 62.0234 102.885 62.1016 102.885 62.2578C102.885 62.4141 102.91 62.6699 102.961 63.0254C103.016 63.3809 103.043 63.625 103.043 63.7578C103.043 64.0547 102.969 64.2031 102.82 64.2031C102.676 64.2031 102.604 64.0742 102.604 63.8164ZM117.158 62.9492L117.199 62.3867C117.199 62.2891 117.152 62.2129 117.059 62.1582C116.965 62.1074 116.863 62.082 116.754 62.082C116.645 62.082 116.547 62.1113 116.461 62.1699C116.375 62.2285 116.332 62.3125 116.332 62.4219V63.7695C116.332 63.9648 116.373 64.252 116.455 64.6309C116.537 65.0098 116.578 65.2793 116.578 65.4395C116.578 65.6035 116.543 65.7383 116.473 65.8438C116.402 65.9492 116.305 66.002 116.18 66.002C116.059 66.002 115.967 65.9473 115.904 65.8379C115.842 65.7285 115.811 65.5859 115.811 65.4102C115.811 65.2344 115.855 64.9297 115.945 64.4961C116.035 64.0625 116.08 63.7266 116.08 63.4883C116.08 62.5234 115.9 62.041 115.541 62.041C115.057 62.041 114.814 62.0215 114.814 61.9824V61.9941C114.814 62.2637 114.873 62.6582 114.99 63.1777C115.111 63.7012 115.172 64.0762 115.172 64.3027C115.172 64.5293 115.131 64.7148 115.049 64.8594C114.967 65.0078 114.84 65.082 114.668 65.082C114.5 65.082 114.367 65.0117 114.27 64.8711C114.176 64.7305 114.129 64.5469 114.129 64.3203C114.129 64.0977 114.186 63.7129 114.299 63.166C114.412 62.623 114.469 62.2109 114.469 61.9297C113.543 61.6367 112.846 61.1582 112.377 60.4941C111.912 59.8301 111.68 59.0098 111.68 58.0332C111.68 56.0098 112.699 54.7324 114.738 54.2012C115.398 54.0293 116.08 53.9434 116.783 53.9434C117.49 53.9434 118.09 53.9824 118.582 54.0605C119.078 54.1387 119.557 54.2773 120.018 54.4766C120.482 54.6719 120.877 54.9219 121.201 55.2266C121.529 55.5273 121.791 55.918 121.986 56.3984C122.182 56.875 122.279 57.4199 122.279 58.0332C122.279 59.2832 121.928 60.252 121.225 60.9395C120.521 61.623 119.533 62.043 118.26 62.1992C118.244 62.2266 118.236 62.2695 118.236 62.3281L118.266 62.6504C118.266 62.8496 118.211 62.9492 118.102 62.9492C117.992 62.9492 117.938 62.8535 117.938 62.6621L117.955 62.334C117.955 62.2168 117.871 62.1582 117.703 62.1582C117.688 62.1934 117.68 62.2598 117.68 62.3574L117.709 62.9258C117.709 63.043 117.688 63.1562 117.645 63.2656C117.602 63.375 117.529 63.4297 117.428 63.4297C117.248 63.4297 117.158 63.2695 117.158 62.9492ZM114.943 58.0391C114.943 59.4688 115.623 60.1836 116.982 60.1836C118.342 60.1836 119.021 59.4688 119.021 58.0391C119.021 57.3828 118.846 56.8809 118.494 56.5332C118.143 56.1855 117.639 56.0117 116.982 56.0117C116.326 56.0117 115.822 56.1855 115.471 56.5332C115.119 56.8809 114.943 57.3828 114.943 58.0391ZM126.018 63.8164L126.158 62.2285C126.158 62.1035 126.088 62 125.947 61.918C125.717 61.7891 125.436 61.7246 125.104 61.7246C124.658 61.7246 124.352 61.8125 124.184 61.9883C124.109 62.0664 124.072 62.1797 124.072 62.3281C124.072 62.4805 124.117 62.7441 124.207 63.1191C124.297 63.4941 124.342 63.7578 124.342 63.9102C124.342 64.0664 124.312 64.1895 124.254 64.2793C124.199 64.373 124.117 64.4199 124.008 64.4199C123.898 64.4199 123.814 64.373 123.756 64.2793C123.697 64.1895 123.668 64.0664 123.668 63.9102C123.668 63.7539 123.715 63.4844 123.809 63.1016C123.906 62.7188 123.955 62.4297 123.955 62.2344L123.949 55.0508C123.949 54.5898 123.809 54.2051 123.527 53.8965L123.65 53.7734C123.967 54.0547 124.352 54.1953 124.805 54.1953H126.557C126.807 54.1953 127.018 54.166 127.189 54.1074C127.365 54.0449 127.506 53.9238 127.611 53.7441L127.805 53.8379C127.703 54.0801 127.652 54.3086 127.652 54.5234C127.652 54.6992 127.961 55.1406 128.578 55.8477C129.383 56.7695 129.9 57.3887 130.131 57.7051C130.361 58.0215 130.512 58.2773 130.582 58.4727H130.934C130.742 58.1914 130.646 57.7949 130.646 57.2832C130.646 57.0449 130.676 56.6895 130.734 56.2168C130.793 55.7402 130.822 55.3828 130.822 55.1445C130.822 54.5039 130.619 54.0879 130.213 53.8965L130.336 53.7734C130.652 54.0547 131.037 54.1953 131.49 54.1953H132.691C133.145 54.1953 133.529 54.0547 133.846 53.7734L133.963 53.8965C133.686 54.209 133.547 54.5938 133.547 55.0508L133.535 62.2051C133.535 62.373 133.574 62.623 133.652 62.9551C133.73 63.291 133.77 63.543 133.77 63.7109C133.77 63.9609 133.674 64.0859 133.482 64.0859C133.291 64.0859 133.195 63.9609 133.195 63.7109C133.195 63.5469 133.232 63.3047 133.307 62.9844C133.381 62.668 133.418 62.4492 133.418 62.3281C133.418 62.2109 133.379 62.127 133.301 62.0762C133.223 62.0254 133.146 62 133.072 62H130.758C130.43 62 130.266 62.2988 130.266 62.8965C130.266 63.1426 130.311 63.498 130.4 63.9629C130.494 64.4316 130.541 64.7852 130.541 65.0234C130.541 65.3633 130.414 65.5332 130.16 65.5332C129.906 65.5332 129.779 65.3613 129.779 65.0176C129.779 64.7988 129.828 64.4805 129.926 64.0625C130.027 63.6445 130.08 63.3301 130.084 63.1191L130.096 62.3398C130.107 61.9766 130.07 61.7402 129.984 61.6309L127.178 58.0742C127.104 57.9766 127.021 57.7734 126.932 57.4648L126.574 57.4766C126.777 57.6875 126.879 57.9219 126.879 58.1797V61.5254L126.99 64.4902C126.99 64.5527 126.971 64.6055 126.932 64.6484C126.896 64.6953 126.846 64.7188 126.779 64.7188C126.717 64.7188 126.664 64.6914 126.621 64.6367C126.578 64.5859 126.557 64.5273 126.557 64.4609L126.627 62.2109C126.627 62.1641 126.609 62.1211 126.574 62.082C126.539 62.043 126.498 62.0234 126.451 62.0234C126.35 62.0234 126.299 62.1016 126.299 62.2578C126.299 62.4141 126.324 62.6699 126.375 63.0254C126.43 63.3809 126.457 63.625 126.457 63.7578C126.457 64.0547 126.383 64.2031 126.234 64.2031C126.09 64.2031 126.018 64.0742 126.018 63.8164Z" fill="#121212"/>
<path d="M86.2773 62.5L86.3008 63.7422C86.3008 63.9922 86.2617 64.1797 86.1836 64.3047C86.1055 64.4349 86.0117 64.5 85.9023 64.5C85.6836 64.5 85.5742 64.2891 85.5742 63.8672C85.5742 63.4453 85.6263 62.9766 85.7305 62.4609C85.8346 61.9505 85.9258 61.599 86.0039 61.4062L89.7539 52.1797C89.806 52.0443 89.832 51.9115 89.832 51.7812C89.832 51.651 89.7878 51.5234 89.6992 51.3984L89.918 51.2578C90.069 51.4818 90.3034 51.5938 90.6211 51.5938H94.2148C94.5273 51.5938 94.7591 51.4818 94.9102 51.2578L95.1367 51.3984C95.0482 51.5234 95.0039 51.6432 95.0039 51.7578C95.0039 51.8724 95.0352 52.0104 95.0977 52.1719L98.957 61.4141C99.0768 61.7057 99.2617 61.9349 99.5117 62.1016L99.418 62.25C99.1628 62.0833 98.8789 62 98.5664 62H97.0352C97.0456 62.1146 97.0508 62.1953 97.0508 62.2422C97.0508 62.4141 96.9805 62.5 96.8398 62.5C96.7773 62.5 96.7201 62.474 96.668 62.4219C96.6211 62.375 96.5977 62.3047 96.5977 62.2109C96.5977 62.1224 96.6029 62.0521 96.6133 62H95.668C95.4388 62 95.2904 62.125 95.2227 62.375C95.1393 62.6823 95.0977 63.0339 95.0977 63.4297C95.0977 63.8307 95.1237 64.1953 95.1758 64.5234C95.2279 64.8516 95.2539 65.0755 95.2539 65.1953C95.2539 65.3203 95.2227 65.4193 95.1602 65.4922C95.1029 65.5703 95.0299 65.6094 94.9414 65.6094C94.8529 65.6094 94.7773 65.5729 94.7148 65.5C94.6523 65.4271 94.6211 65.3255 94.6211 65.1953C94.6211 65.0651 94.6523 64.8125 94.7148 64.4375C94.7826 64.0625 94.8164 63.7812 94.8164 63.5938V61.3984C94.7643 61.2578 94.7383 61.1276 94.7383 61.0078C94.7383 60.888 94.7852 60.7604 94.8789 60.625L94.6758 60.4766C94.5195 60.7005 94.2852 60.8125 93.9727 60.8125H90.7617C90.4492 60.8125 90.2148 60.7031 90.0586 60.4844L89.8555 60.625C89.9544 60.7656 90.0039 60.8958 90.0039 61.0156C90.0039 61.1354 89.9857 61.263 89.9492 61.3984V61.4062C89.9023 61.5833 89.8789 61.7188 89.8789 61.8125C89.8789 61.9062 89.931 62.0286 90.0352 62.1797L89.832 62.3281C89.6758 62.1094 89.4414 62 89.1289 62H86.3008C86.2852 62.099 86.2773 62.2656 86.2773 62.5ZM91.5664 58.6484H93.0586C93.3711 58.6484 93.6523 58.7318 93.9023 58.8984L94.0039 58.75C93.7591 58.5833 93.582 58.3516 93.4727 58.0547L92.4805 55.5156C92.3659 55.2188 92.306 54.9167 92.3008 54.6094H92.1992C92.1888 54.9531 92.1367 55.2552 92.043 55.5156L91.1445 58.0469C91.0352 58.349 90.8607 58.5833 90.6211 58.75L90.7227 58.9062C90.9674 58.7344 91.2487 58.6484 91.5664 58.6484ZM96.6367 64.5859C96.6367 64.2266 96.7044 63.776 96.8398 63.2344C96.9909 63.8594 97.0664 64.2656 97.0664 64.4531C97.0664 64.7292 96.9935 64.8672 96.8477 64.8672C96.707 64.8672 96.6367 64.7734 96.6367 64.5859Z" fill="#B4EE0D"/>
</g>
<defs>
<filter id="filter0_i_0_1" x="58.7125" y="5.83784" width="36.575" height="47.7838" filterUnits="userSpaceOnUse" color-interpolation-filters="sRGB">
<feFlood flood-opacity="0" result="BackgroundImageFix"/>
<feBlend mode="normal" in="SourceGraphic" in2="BackgroundImageFix" result="shape"/>
<feColorMatrix in="SourceAlpha" type="matrix" values="0 0 0 0 0 0 0 0 0 0 0 0 0 0 0 0 0 0 127 0" result="hardAlpha"/>
<feOffset dy="4"/>
<feGaussianBlur stdDeviation="2"/>
<feComposite in2="hardAlpha" operator="arithmetic" k2="-1" k3="1"/>
<feColorMatrix type="matrix" values="0 0 0 0 0 0 0 0 0 0 0 0 0 0 0 0 0 0 0.25 0"/>
<feBlend mode="normal" in2="shape" result="effect1_innerShadow_0_1"/>
</filter>
</defs>
</svg>
