<svg xmlns="http://www.w3.org/2000/svg" version="1.1" xmlns:xlink="http://www.w3.org/1999/xlink" xmlns:svgjs="http://svgjs.dev/svgjs" width="2000" height="1500" viewBox="0 0 2000 1500"><rect width="2000" height="1500" fill="#ffffff"></rect><g transform="matrix(0.75,0,0,0.75,249.090909090909,524.3584969912393)"><svg viewBox="0 0 396 119" data-background-color="#ffffff" preserveAspectRatio="xMidYMid meet" height="601" width="2000" xmlns="http://www.w3.org/2000/svg" xmlns:xlink="http://www.w3.org/1999/xlink"><g id="tight-bounds" transform="matrix(1,0,0,1,0.24000000000003752,0.07035797679981215)"><svg viewBox="0 0 395.5199999999999 118.85928404640038" height="118.85928404640038" width="395.5199999999999"><g><svg viewBox="0 0 395.5199999999999 118.85928404640038" height="118.85928404640038" width="395.5199999999999"><g transform="matrix(1,0,0,1,0,73.45980593866005)"><svg viewBox="0 0 395.5199999999999 45.39947810774033" height="45.39947810774033" width="395.5199999999999"><g id="textblocktransform"><svg viewBox="0 0 395.5199999999999 45.39947810774033" height="45.39947810774033" width="395.5199999999999" id="textblock"><g><svg viewBox="0 0 395.5199999999999 45.39947810774033" height="45.39947810774033" width="395.5199999999999"><g transform="matrix(1,0,0,1,0,0)"><svg width="395.5199999999999" viewBox="2.34 -35.01 304.99 35.01" height="45.39947810774033" data-palette-color="#1f2abc"><path d="M37.33-10.3L37.33-10.3Q37.33-8.42 36.85-6.92 36.38-5.42 35.6-4.27 34.81-3.13 33.76-2.32 32.71-1.51 31.59-1 30.47-0.49 29.31-0.24 28.15 0 27.12 0L27.12 0 2.64 0 2.64-6.35 27.12-6.35Q28.96-6.35 29.97-7.42 30.98-8.5 30.98-10.3L30.98-10.3Q30.98-11.18 30.71-11.91 30.44-12.65 29.94-13.18 29.44-13.72 28.72-14.01 28-14.31 27.12-14.31L27.12-14.31 12.52-14.31Q10.99-14.31 9.2-14.86 7.42-15.41 5.9-16.63 4.37-17.85 3.36-19.82 2.34-21.8 2.34-24.66L2.34-24.66Q2.34-27.51 3.36-29.48 4.37-31.45 5.9-32.68 7.42-33.91 9.2-34.46 10.99-35.01 12.52-35.01L12.52-35.01 34.13-35.01 34.13-28.66 12.52-28.66Q10.72-28.66 9.7-27.56 8.69-26.46 8.69-24.66L8.69-24.66Q8.69-22.83 9.7-21.77 10.72-20.7 12.52-20.7L12.52-20.7 27.12-20.7 27.17-20.7Q28.2-20.68 29.35-20.42 30.49-20.17 31.63-19.63 32.76-19.09 33.79-18.27 34.81-17.46 35.61-16.31 36.4-15.16 36.87-13.67 37.33-12.18 37.33-10.3ZM70.29-17.65L70.29-17.65Q70.29-16.33 69.82-14.81 69.36-13.28 68.32-11.98 67.28-10.67 65.61-9.79 63.94-8.91 61.55-8.91L61.55-8.91 50.1-8.91 50.1-14.94 61.55-14.94Q62.84-14.94 63.55-15.73 64.26-16.53 64.26-17.7L64.26-17.7Q64.26-18.95 63.46-19.65 62.67-20.36 61.55-20.36L61.55-20.36 50.1-20.36Q48.8-20.36 48.09-19.57 47.39-18.77 47.39-17.6L47.39-17.6 47.39-8.74Q47.39-7.47 48.18-6.76 48.97-6.05 50.14-6.05L50.14-6.05 61.55-6.05 61.55 0 50.1 0Q48.78 0 47.25-0.46 45.73-0.93 44.42-1.97 43.11-3 42.23-4.68 41.35-6.35 41.35-8.74L41.35-8.74 41.35-17.65Q41.35-18.97 41.82-20.5 42.28-22.02 43.32-23.33 44.36-24.63 46.03-25.51 47.7-26.39 50.1-26.39L50.1-26.39 61.55-26.39Q62.86-26.39 64.39-25.93 65.92-25.46 67.22-24.43 68.53-23.39 69.41-21.72 70.29-20.04 70.29-17.65ZM100.12-6.35L100.12 0 82.91 0Q81.59 0 80.02-0.46 78.46-0.93 77.13-1.99 75.8-3.05 74.91-4.75 74.02-6.45 74.02-8.91L74.02-8.91 74.02-17.5Q74.02-18.41 74.23-19.41 74.43-20.41 74.87-21.4 75.31-22.39 76.01-23.29 76.7-24.19 77.69-24.88 78.68-25.56 79.98-25.98 81.27-26.39 82.91-26.39L82.91-26.39 100.12-26.39 100.12-20.04 82.91-20.04Q81.66-20.04 81.01-19.41 80.37-18.77 80.37-17.46L80.37-17.46 80.37-8.91Q80.37-7.67 81.03-7.01 81.68-6.35 82.95-6.35L82.95-6.35 100.12-6.35ZM134.22-26.39L134.22-3.2Q134.22-2.51 133.98-1.93 133.73-1.34 133.31-0.92 132.88-0.49 132.3-0.24 131.73 0 131.07 0L131.07 0 116.72 0Q115.54 0 114.21-0.27 112.88-0.54 111.59-1.14 110.3-1.73 109.09-2.65 107.88-3.56 106.97-4.87 106.07-6.18 105.52-7.89 104.97-9.59 104.97-11.74L104.97-11.74 104.97-26.39 111.32-26.39 111.32-11.74Q111.32-10.5 111.75-9.51 112.18-8.52 112.91-7.81 113.64-7.1 114.63-6.73 115.62-6.35 116.76-6.35L116.76-6.35 127.87-6.35 127.87-26.39 134.22-26.39ZM163.27-26.39L163.27-20.04 148.99-20.04Q147.7-20.04 147.04-19.4 146.38-18.75 146.38-17.5L146.38-17.5 146.38 0 140.03 0 140.03-17.5Q140.03-19.14 140.44-20.43 140.86-21.73 141.55-22.72 142.25-23.71 143.15-24.4 144.06-25.1 145.05-25.54 146.03-25.98 147.05-26.18 148.06-26.39 148.94-26.39L148.94-26.39 163.27-26.39ZM202.5-31.81L202.5 0 196.15 0 196.15-8.59 173.84-8.59 173.84 0 167.49 0 167.49-17.5Q167.49-21.34 168.81-24.56 170.13-27.78 172.47-30.1 174.82-32.42 178.01-33.72 181.21-35.01 185-35.01L185-35.01 199.3-35.01Q199.96-35.01 200.55-34.77 201.13-34.52 201.57-34.08 202.01-33.64 202.26-33.06 202.5-32.47 202.5-31.81L202.5-31.81ZM173.84-17.5L173.84-14.94 196.15-14.94 196.15-28.66 185-28.66Q184.7-28.66 183.76-28.58 182.82-28.49 181.59-28.15 180.36-27.81 178.99-27.1 177.62-26.39 176.48-25.15 175.33-23.9 174.58-22.03 173.84-20.17 173.84-17.5L173.84-17.5ZM238.41-14.65L238.41 0 232.07 0 232.07-14.65Q232.07-15.89 231.64-16.88 231.21-17.87 230.48-18.58 229.75-19.29 228.76-19.67 227.77-20.04 226.62-20.04L226.62-20.04 215.51-20.04 215.51 0 209.16 0 209.16-23.24Q209.16-23.9 209.41-24.48 209.65-25.05 210.09-25.48 210.53-25.9 211.12-26.15 211.7-26.39 212.36-26.39L212.36-26.39 226.67-26.39Q227.87-26.39 229.2-26.12 230.53-25.85 231.83-25.26 233.14-24.66 234.32-23.74 235.51-22.83 236.42-21.52 237.34-20.21 237.88-18.51 238.41-16.8 238.41-14.65L238.41-14.65ZM272.69-17.5L272.69-8.91Q272.69-7.28 272.27-5.97 271.86-4.66 271.17-3.67 270.49-2.69 269.59-1.99 268.68-1.29 267.69-0.85 266.71-0.42 265.69-0.21 264.68 0 263.78 0L263.78 0 252.33 0Q251.01 0 249.45-0.46 247.88-0.93 246.55-1.99 245.22-3.05 244.33-4.75 243.44-6.45 243.44-8.91L243.44-8.91 243.44-17.5Q243.44-19.95 244.33-21.64 245.22-23.34 246.55-24.4 247.88-25.46 249.45-25.93 251.01-26.39 252.33-26.39L252.33-26.39 263.78-26.39Q266.22-26.39 267.93-25.51 269.64-24.63 270.69-23.3 271.74-21.97 272.21-20.41 272.69-18.85 272.69-17.5L272.69-17.5ZM266.34-8.91L266.34-17.46Q266.34-18.77 265.68-19.41 265.02-20.04 263.78-20.04L263.78-20.04 252.38-20.04Q251.11-20.04 250.45-19.4 249.79-18.75 249.79-17.5L249.79-17.5 249.79-8.91Q249.79-7.67 250.45-7.01 251.11-6.35 252.38-6.35L252.38-6.35 263.78-6.35Q265.07-6.35 265.71-7.01 266.34-7.67 266.34-8.91L266.34-8.91ZM307.33-14.65L307.33 0 300.98 0 300.98-14.65Q300.98-15.89 300.55-16.88 300.13-17.87 299.39-18.58 298.66-19.29 297.67-19.67 296.68-20.04 295.54-20.04L295.54-20.04 284.43-20.04 284.43 0 278.08 0 278.08-23.24Q278.08-23.9 278.32-24.48 278.57-25.05 279.01-25.48 279.45-25.9 280.03-26.15 280.62-26.39 281.28-26.39L281.28-26.39 295.59-26.39Q296.78-26.39 298.11-26.12 299.44-25.85 300.75-25.26 302.06-24.66 303.24-23.74 304.42-22.83 305.34-21.52 306.25-20.21 306.79-18.51 307.33-16.8 307.33-14.65L307.33-14.65Z" opacity="1" transform="matrix(1,0,0,1,0,0)" fill="#1f2abc" class="wordmark-text-0" data-fill-palette-color="primary" id="text-0"></path></svg></g></svg></g></svg></g></svg></g><g transform="matrix(1,0,0,1,165.86643725271495,0)"><svg viewBox="0 0 63.78712549457003 62.74207874489714" height="62.74207874489714" width="63.78712549457003"><g><svg xmlns:x="http://ns.adobe.com/Extensibility/1.0/" xmlns:i="http://ns.adobe.com/AdobeIllustrator/10.0/" xmlns:graph="http://ns.adobe.com/Graphs/1.0/" xmlns="http://www.w3.org/2000/svg" xmlns:xlink="http://www.w3.org/1999/xlink" version="1.1" x="0" y="0" viewBox="3.5999999999999996 4.322013138103809 92.9 91.3779868618962" enable-background="new 0 0 100 100" xml:space="preserve" height="62.74207874489714" width="63.78712549457003" class="icon-icon-0" data-fill-palette-color="accent" id="icon-0"><path d="M64.8 61.9c-1.2 2.4-1.8 5.1-1.8 8v0.4c-2.2 1.5-3.6 4.1-3.6 6.9v15.2c0 1.2 0.2 2.3 0.7 3.3H6.3c-1.5 0-2.7-1.2-2.7-2.7v-6.7c0-4.5 2-8.7 5.6-11.5 10.3-8 20.8-13.3 23-14.4 0.3-0.1 0.4-0.4 0.4-0.7v-6.4c-1.7-2.8-2.5-5.9-3-8.7-1-0.1-2.3-1.4-3.6-6.3-1.9-6.7 0.1-7.7 1.8-7.5-1.2-3.5-1.3-7-0.4-10.1 0.9-3.8 2.9-6.8 5.2-9.1 1.4-1.5 3.1-2.9 4.8-4 1.4-1 3-1.8 4.7-2.4l0 0c1.3-0.4 2.7-0.7 4.2-0.8 4.6-0.4 8.1 0.8 10.6 2.2 3.8 2.1 5.2 4.8 5.2 4.8s9.4 0.7 5.3 20.5c1.3 0.4 2.2 2.2 0.7 7.4-1.8 6.4-3.5 6.8-4.5 6.1-0.4 2.2-1.1 4.6-2.2 6.9 0 3.2 0 6.3 0 7.4 0 0.3 0.2 0.6 0.4 0.7C62.4 60.7 63.4 61.2 64.8 61.9zM96.5 77.2v15.2c0 1.8-1.5 3.3-3.3 3.3H67.9c-1.8 0-3.3-1.5-3.3-3.3V77.2c0-1.8 1.5-3.3 3.3-3.3h0.3v-4c0-6.7 5.2-12.5 12-12.8 0.2 0 0.3 0 0.5 0 6.9 0 12.5 5.6 12.5 12.5v4.3h0.1C95 73.9 96.5 75.3 96.5 77.2zM82.3 85.2c0.6-0.5 1-1.3 1-2.1 0-1.5-1.2-2.7-2.7-2.7-0.1 0-0.2 0-0.3 0-1.2 0.1-2.2 1.1-2.4 2.3-0.2 1 0.2 1.9 0.9 2.5L78 88.6c-0.1 0.4 0.2 0.7 0.6 0.7h1.8 1.8c0.4 0 0.7-0.4 0.6-0.7L82.3 85.2zM87.6 73.9l0-4.3c0-3.9-3.1-7-7-7-0.2 0-0.4 0-0.7 0-3.6 0.3-6.3 3.5-6.3 7.2v4.1H87.6L87.6 73.9z" fill="#1614ae" data-fill-palette-color="accent"></path></svg><g></g></g></svg></g><g></g></svg></g><defs></defs></svg><rect width="395.5199999999999" height="118.85928404640038" fill="none" stroke="none" visibility="hidden"></rect></g></svg></g></svg>